<svg xmlns="http://www.w3.org/2000/svg" id="Ebene_1" data-name="Ebene 1" width="600" height="400"
    viewBox="0 0 600 400">
    <defs>
        <style>.cls-1{fill:#fff;}.cls-2{fill:#e00;}</style>
    </defs>
    <path class="cls-1"
        d="M260.14,225.12h9l21.07,51.46h-8.4l-5.95-15.07h-23l-6.05,15.07h-8Zm13.24,30-9-22.56-9,22.56Z" />
    <path class="cls-1"
        d="M294.65,239.14H302v3.74a15.28,15.28,0,0,1,11.28-4.46c8.59,0,14.64,6,14.64,14.64v23.52h-7.34V254.26c0-5.9-3.6-9.5-9.27-9.5A10.54,10.54,0,0,0,302,249.6v26.93H294.7V239.14Z" />
    <path class="cls-1"
        d="M336.79,266.88c3.89,3.08,8,4.71,12.19,4.71,5.28,0,9-2.31,9-5.62,0-2.64-1.92-4.17-6-4.8l-6.77-1c-7.44-1.1-11.18-4.56-11.18-10.37,0-6.76,5.9-11.32,14.64-11.32a25.81,25.81,0,0,1,15.12,4.75L360,248.12a20.72,20.72,0,0,0-11.86-3.89c-4.46,0-7.49,2.06-7.49,5.09,0,2.73,1.78,4,6.19,4.7l6.77,1c7.44,1.1,11.33,4.66,11.33,10.42,0,6.72-6.77,11.76-15.65,11.76-6.48,0-12.29-1.92-16.41-5.52Z" />
    <path class="cls-1"
        d="M369.72,228.53a4.54,4.54,0,0,1,4.46-4.56h0a4.56,4.56,0,1,1,.39,9.12h-.34a4.52,4.52,0,0,1-4.51-4.56Zm8.16,48h-7.34V239.14h7.34Z" />
    <path class="cls-1"
        d="M405.19,277.16a18.88,18.88,0,0,1-11.33-3.75v3.17h-7.29V225.12l7.34-1.63v19.2a17.43,17.43,0,0,1,11.38-4.13,19.3,19.3,0,0,1-.1,38.6Zm-11.28-27.7v16.9a13.84,13.84,0,0,0,10.47,4.41,12.91,12.91,0,0,0,0-25.82A13.48,13.48,0,0,0,393.91,249.46Z" />
    <path class="cls-1" d="M438.55,276.58h-7.34V225.12l7.34-1.63Z" />
    <path class="cls-1"
        d="M465.19,277.25a19.27,19.27,0,0,1-19.63-19.39c0-10.8,8.26-19.25,18.77-19.25,10.32,0,18.09,8.55,18.09,19.59v2.11H452.86a12.67,12.67,0,0,0,12.67,10.75,14.55,14.55,0,0,0,9.5-3.26l4.71,4.65A23,23,0,0,1,465.19,277.25ZM452.9,254.74h22.23c-1.11-5.71-5.52-10-10.95-10C458.47,244.76,454,248.79,452.9,254.74Z" />
    <path class="cls-2"
        d="M173.5,181.44c8.83,0,21.64-1.82,21.64-12.33a7.69,7.69,0,0,0-.24-2.4l-5.28-22.9c-1.2-5-2.3-7.29-11.13-11.76-6.87-3.5-21.84-9.31-26.26-9.31-4.13,0-5.33,5.33-10.22,5.33-4.71,0-8.21-4-12.67-4-4.23,0-7,2.88-9.12,8.84,0,0-6,16.75-6.72,19.2a4.25,4.25,0,0,0-.2,1.39c.1,6.53,25.78,27.93,60.2,27.93m23-8.06c1.2,5.81,1.2,6.38,1.2,7.15,0,9.89-11.14,15.41-25.78,15.41-33.12,0-62.06-19.34-62.06-32.16a13.69,13.69,0,0,1,1-5.18c-11.9.62-27.31,2.73-27.31,16.32,0,22.27,52.75,49.68,94.51,49.68,32,0,40.08-14.5,40.08-25.92.05-9-7.73-19.2-21.69-25.3" />
    <path
        d="M196.49,173.38c1.2,5.81,1.2,6.38,1.2,7.15,0,9.89-11.14,15.41-25.78,15.41-33.12,0-62.06-19.34-62.06-32.16a13.69,13.69,0,0,1,1.05-5.18l2.6-6.39a4.17,4.17,0,0,0-.2,1.35c0,6.52,25.68,27.88,60.1,27.88,8.83,0,21.65-1.82,21.65-12.33a8,8,0,0,0-.24-2.4Z" />
    <path class="cls-1"
        d="M493.32,188c0,8.4,5,12.48,14.26,12.48a35.63,35.63,0,0,0,8.4-1.2v-9.74a17.7,17.7,0,0,1-5.43.81c-3.79,0-5.18-1.2-5.18-4.75V170.69h11v-10h-11V147.94l-12,2.59v10.13h-8v10h8Zm-37.49.24c0-2.59,2.59-3.89,6.53-3.89a30.39,30.39,0,0,1,7.15.91v5A15.71,15.71,0,0,1,462,192.2c-3.84,0-6.14-1.49-6.19-3.94m3.7,12.38a18.69,18.69,0,0,0,10.85-3V200h11.9v-25.2c0-9.6-6.48-14.83-17.23-14.83a43.33,43.33,0,0,0-18.39,4.32l4.32,8.83c4.61-1.92,8.5-3.12,11.91-3.12,4.94,0,7.49,1.92,7.49,5.86v1.92a32.88,32.88,0,0,0-8.93-1.11c-10.13,0-16.23,4.23-16.23,11.81,0,6.91,5.52,12.19,14.31,12.14M394.15,200H407v-20.4h21.41V200h12.81V147.94H428.42v20H407v-20H394.2Zm-48.72-19.73a10,10,0,0,1,10.32-10,12.17,12.17,0,0,1,8.35,3.07v13.73a11.64,11.64,0,0,1-8.35,3.12,10,10,0,0,1-10.32-9.94M364.25,200h11.9V145.35l-12,2.59v14.78a20.29,20.29,0,1,0-10.75,37.83h.34a18.12,18.12,0,0,0,10.56-3.41l-.05,2.83Zm-54.58-30.19a8.69,8.69,0,0,1,8.26,6.24H301.51a8.16,8.16,0,0,1,8.16-6.24m-20.3,10.56c0,11.47,9.36,20.4,21.41,20.4a23.65,23.65,0,0,0,16.46-6l-8-7.06a10.72,10.72,0,0,1-7.87,3,10.24,10.24,0,0,1-9.7-6.24h28v-3c0-12.48-8.4-21.5-19.88-21.5a20.17,20.17,0,0,0-20.49,19.92v.43m-20.79-21.46c4.23,0,6.63,2.69,6.63,5.86s-2.4,5.86-6.63,5.86H256V158.88ZM243.14,200H256v-19h9.74l9.84,19H289.8l-11.47-20.83a15.66,15.66,0,0,0,9.79-14.64c0-9.36-7.34-16.56-18.38-16.56H243.19Z" />
</svg>